# xmcd
#
# Track frame offsets: 
#        150
#        17803
#        34844
#        51315
#        66464
#        81585
#        92081
#        112676
#        124299
#        141407
#        153767
#        167258
#
# Disc length: 2381 seconds
#
# Revision: 2
# Processed by: cddbd v1.5.2PL0 Copyright (c) Steve Scherf et al.
# Submitted via: ExactAudioCopyFreeDBPlugin 1.0
#
DISCID=9f094b0c
DTITLE=Sharon Jones - I Learned the Hard Way
DYEAR=2010
DGENRE=Soul
TTITLE0=The Game Gets Old
TTITLE1=I Learned the Hard Way
TTITLE2=Better Things
TTITLE3=Give it Back
TTITLE4=Money
TTITLE5=The Reason
TTITLE6=Window Shopping
TTITLE7=She Ain't a Child No More
TTITLE8=I'll Still Be True
TTITLE9=Without a Heart
TTITLE10=If You Call
TTITLE11=Mama Don't Like My Man
EXTD=
EXTT0=
EXTT1=
EXTT2=
EXTT3=
EXTT4=
EXTT5=
EXTT6=
EXTT7=
EXTT8=
EXTT9=
EXTT10=
EXTT11=
PLAYORDER=
